<svg width="572" height="184" viewBox="0 0 572 184" fill="none" xmlns="http://www.w3.org/2000/svg">
<path d="M11.5059 174.026C8.64082 174.026 6.49202 173.283 5.05949 171.797C3.65348 170.285 2.95048 167.924 2.95048 164.714C2.95048 164.184 2.96375 163.613 2.99027 163.003C3.04333 162.366 3.09639 161.743 3.14944 161.133H11.5059V163.918H6.49202V164.714C6.49202 166.385 6.67772 167.699 7.04912 168.654C7.42051 169.582 7.96434 170.232 8.68061 170.603C9.42341 170.975 10.3386 171.161 11.4263 171.161C12.6201 171.161 13.6547 170.935 14.5301 170.484C15.4056 170.033 16.082 169.211 16.5595 168.017C17.037 166.823 17.2758 165.112 17.2758 162.884C17.2758 160.921 17.0636 159.316 16.6391 158.069C16.2147 156.822 15.5117 155.893 14.5301 155.283C13.5751 154.673 12.2752 154.368 10.6304 154.368C9.78154 154.368 8.95916 154.448 8.16331 154.607C7.36746 154.739 6.59813 154.952 5.85534 155.244C5.11254 155.509 4.38301 155.854 3.66675 156.278V152.975C4.19731 152.684 4.84726 152.432 5.61658 152.219C6.38591 151.981 7.23481 151.795 8.16331 151.662C9.0918 151.503 10.0601 151.423 11.0682 151.423C13.4027 151.423 15.2862 151.901 16.7187 152.856C18.1778 153.784 19.2389 155.111 19.9021 156.835C20.5653 158.533 20.8969 160.549 20.8969 162.884C20.8969 165.218 20.5919 167.221 19.9817 168.892C19.3715 170.564 18.3767 171.837 16.9973 172.712C15.6443 173.588 13.8139 174.026 11.5059 174.026ZM2.57059 148.359V146.807L5.47544 145.534H19.4824V148.359H2.57059ZM34.1566 174.026C32.5914 174.026 31.2384 173.76 30.0977 173.23C28.9835 172.673 28.1214 171.837 27.5112 170.723C26.9276 169.609 26.6358 168.163 26.6358 166.385V151.821H30.1773V166.186C30.1773 167.778 30.5752 168.985 31.3711 169.808C32.1935 170.63 33.374 171.041 34.9126 171.041C36.7696 171.041 38.2021 170.444 39.2102 169.251C40.2448 168.057 40.7621 166.452 40.7621 164.436V151.821H44.3037V173.628H41.359L41.1998 170.404H41.0009C40.5234 171.466 39.6877 172.341 38.4939 173.031C37.3267 173.694 35.8809 174.026 34.1566 174.026ZM63.8132 173.628V159.103C63.8132 157.379 63.4153 156.159 62.6194 155.442C61.8501 154.7 60.5502 154.328 58.7198 154.328C57.3933 154.328 56.12 154.514 54.8997 154.885C53.7059 155.23 52.5652 155.721 51.4775 156.358V153.055C52.2468 152.657 53.2814 152.286 54.5813 151.941C55.9078 151.596 57.3933 151.423 59.0381 151.423C60.4441 151.423 61.6379 151.583 62.6194 151.901C63.6275 152.219 64.3703 152.803 64.8478 153.652C65.7763 154.076 66.413 154.739 66.7579 155.641C67.1293 156.543 67.315 157.631 67.315 158.904V173.628H63.8132ZM56.9689 174.026C54.6344 174.026 52.8437 173.495 51.5969 172.434C50.3766 171.346 49.7664 169.794 49.7664 167.778C49.7664 165.576 50.5623 163.879 52.154 162.685C53.7722 161.491 56.3853 160.788 59.9931 160.576L64.5295 160.297V163.242L60.4706 163.52C57.7647 163.706 55.8945 164.131 54.8599 164.794C53.8518 165.457 53.3478 166.425 53.3478 167.699C53.3478 168.892 53.7192 169.768 54.462 170.325C55.2313 170.882 56.2924 171.161 57.6454 171.161C58.0963 171.161 58.5075 171.134 58.8789 171.081C59.2503 171.001 59.6085 170.909 59.9533 170.802L60.5104 173.469C60.0064 173.654 59.4493 173.787 58.8391 173.866C58.2555 173.973 57.6321 174.026 56.9689 174.026ZM64.7284 154.885L62.7388 153.015C63.4285 152.909 64.0785 152.644 64.6886 152.219C65.2988 151.795 65.6039 151.185 65.6039 150.389H69.0658C69.0658 151.211 68.8669 151.941 68.4689 152.577C68.0975 153.188 67.5802 153.692 66.917 154.09C66.2538 154.461 65.5243 154.726 64.7284 154.885ZM78.746 174.026C78.0297 174.026 77.34 173.906 76.6768 173.667C76.0136 173.429 75.4697 173.004 75.0453 172.394C74.6208 171.784 74.4086 170.935 74.4086 169.847V151.821H77.9501V169.41C77.9501 170.02 78.0828 170.458 78.3481 170.723C78.6134 170.988 79.0378 171.121 79.6214 171.121C79.8602 171.121 80.1122 171.094 80.3775 171.041C80.6428 170.988 80.8948 170.922 81.1335 170.842L81.6111 173.429C81.107 173.667 80.6162 173.827 80.1387 173.906C79.6612 173.986 79.197 174.026 78.746 174.026ZM85.6668 173.628V151.821H88.1339L88.7706 155.283H88.9298C89.3808 154.09 90.2031 153.148 91.3969 152.458C92.5907 151.768 94.0365 151.423 95.7343 151.423C97.326 151.423 98.679 151.702 99.7931 152.259C100.934 152.79 101.809 153.612 102.419 154.726C103.03 155.84 103.335 157.286 103.335 159.064V173.628H99.7931V159.263C99.7931 157.671 99.3952 156.464 98.5994 155.641C97.8035 154.819 96.623 154.408 95.0578 154.408C93.811 154.408 92.7499 154.7 91.8744 155.283C90.999 155.867 90.3358 156.663 89.8848 157.671C89.4338 158.652 89.2083 159.767 89.2083 161.013V173.628H85.6668ZM86.0029 148.359V146.807L88.9077 145.534H102.915V148.359H86.0029ZM117.317 174.026C115.752 174.026 114.399 173.76 113.258 173.23C112.144 172.673 111.282 171.837 110.671 170.723C110.088 169.609 109.796 168.163 109.796 166.385V151.821H113.338V166.186C113.338 167.778 113.735 168.985 114.531 169.808C115.354 170.63 116.534 171.041 118.073 171.041C119.93 171.041 121.362 170.444 122.37 169.251C123.405 168.057 123.922 166.452 123.922 164.436V151.821H127.464V173.628H124.519L124.36 170.404H124.161C123.684 171.466 122.848 172.341 121.654 173.031C120.487 173.694 119.041 174.026 117.317 174.026ZM134.319 173.628V151.821H136.787L137.423 155.283H137.582C138.033 154.09 138.856 153.148 140.05 152.458C141.243 151.768 142.689 151.423 144.387 151.423C145.979 151.423 147.332 151.702 148.446 152.259C149.586 152.79 150.462 153.612 151.072 154.726C151.682 155.84 151.987 157.286 151.987 159.064V173.628H148.446V159.263C148.446 157.671 148.048 156.464 147.252 155.641C146.456 154.819 145.276 154.408 143.71 154.408C142.464 154.408 141.402 154.7 140.527 155.283C139.652 155.867 138.988 156.663 138.537 157.671C138.086 158.652 137.861 159.767 137.861 161.013V173.628H134.319ZM145.041 149.513C144.856 149.222 144.71 148.85 144.604 148.399C144.471 147.922 144.405 147.457 144.405 147.006C144.405 146.449 144.524 145.932 144.763 145.455C145.002 144.951 145.426 144.539 146.036 144.221C146.646 143.903 147.495 143.743 148.583 143.743H154.034V146.489H149.498C148.968 146.489 148.543 146.595 148.225 146.807C147.906 146.993 147.747 147.325 147.747 147.802C147.747 147.988 147.787 148.187 147.867 148.399C147.92 148.611 147.999 148.824 148.105 149.036L145.041 149.513ZM163.383 174.026C162.667 174.026 161.977 173.906 161.314 173.667C160.65 173.429 160.107 173.004 159.682 172.394C159.258 171.784 159.046 170.935 159.046 169.847V151.821H162.587V169.41C162.587 170.02 162.72 170.458 162.985 170.723C163.25 170.988 163.675 171.121 164.258 171.121C164.497 171.121 164.749 171.094 165.014 171.041C165.28 170.988 165.532 170.922 165.77 170.842L166.248 173.429C165.744 173.667 165.253 173.827 164.776 173.906C164.298 173.986 163.834 174.026 163.383 174.026ZM171.794 173.628L167.854 151.821H171.475L173.027 161.292C173.16 162.061 173.293 163.056 173.425 164.276C173.558 165.497 173.717 166.943 173.903 168.614H174.022C174.261 167.473 174.486 166.452 174.699 165.55C174.937 164.648 175.15 163.839 175.335 163.122C175.548 162.38 175.733 161.73 175.892 161.173L178.558 151.821H181.463L184.169 161.173C184.328 161.73 184.501 162.38 184.687 163.122C184.899 163.839 185.111 164.648 185.323 165.55C185.562 166.452 185.801 167.473 186.039 168.614H186.199C186.358 166.943 186.504 165.497 186.636 164.276C186.769 163.056 186.902 162.061 187.034 161.292L188.626 151.821H192.247L188.308 173.628H184.846L181.185 161.77C180.999 161.106 180.813 160.417 180.628 159.7C180.469 158.984 180.309 158.042 180.15 156.875H179.991C179.885 157.644 179.766 158.321 179.633 158.904C179.5 159.488 179.368 160.005 179.235 160.456C179.102 160.907 178.97 161.345 178.837 161.77L175.256 173.628H171.794ZM205.51 173.986C203.362 173.986 201.637 173.707 200.337 173.15C199.064 172.593 198.136 171.81 197.552 170.802C196.995 169.794 196.716 168.601 196.716 167.221C196.716 166.001 196.889 165.032 197.234 164.316C197.605 163.573 198.056 163.03 198.587 162.685C199.144 162.34 199.714 162.114 200.298 162.008V161.849C199.767 161.69 199.21 161.425 198.626 161.053C198.043 160.682 197.552 160.165 197.154 159.501C196.783 158.838 196.597 158.002 196.597 156.994C196.597 156.066 196.809 155.19 197.234 154.368C197.658 153.546 198.348 152.869 199.303 152.339C200.258 151.808 201.518 151.543 203.083 151.543C203.72 151.543 204.383 151.596 205.073 151.702C205.763 151.782 206.293 151.927 206.664 152.14L206.028 154.885C205.736 154.779 205.351 154.686 204.874 154.607C204.423 154.501 203.945 154.448 203.441 154.448C202.327 154.448 201.505 154.713 200.974 155.244C200.444 155.748 200.178 156.424 200.178 157.273C200.178 158.201 200.404 158.904 200.855 159.382C201.332 159.859 201.929 160.191 202.645 160.377C203.388 160.536 204.158 160.616 204.953 160.616H205.709V163.202H204.953C203.362 163.202 202.181 163.494 201.412 164.077C200.669 164.635 200.298 165.576 200.298 166.903C200.298 167.672 200.444 168.375 200.735 169.012C201.054 169.648 201.584 170.152 202.327 170.524C203.096 170.895 204.158 171.081 205.51 171.081C206.863 171.081 207.911 170.895 208.654 170.524C209.423 170.152 209.967 169.622 210.286 168.932C210.604 168.216 210.763 167.367 210.763 166.385V151.821H214.305V166.147C214.305 168.932 213.588 170.935 212.156 172.155C210.75 173.376 208.535 173.986 205.51 173.986ZM207.761 149.513C207.576 149.222 207.43 148.85 207.324 148.399C207.191 147.922 207.125 147.457 207.125 147.006C207.125 146.449 207.244 145.932 207.483 145.455C207.721 144.951 208.146 144.539 208.756 144.221C209.366 143.903 210.215 143.743 211.303 143.743H216.754V146.489H212.218C211.687 146.489 211.263 146.595 210.945 146.807C210.626 146.993 210.467 147.325 210.467 147.802C210.467 147.988 210.507 148.187 210.587 148.399C210.64 148.611 210.719 148.824 210.825 149.036L207.761 149.513Z" fill="url(#paint0_linear_0_85)"/>
<path d="M28.6847 27.6575L15.0146 110H7.49601L21.1662 27.6575H28.6847ZM48.9688 71.4019L42.576 110H35.4193L45.7121 48.2431H52.6678L51.0596 57.9328H51.7029C53.6328 54.7699 56.2998 52.2369 59.7039 50.3338C63.1349 48.4039 67.1153 47.439 71.6452 47.439C75.773 47.439 79.2576 48.3101 82.0988 50.0524C84.9669 51.7678 87.004 54.3008 88.2102 57.6514C89.4432 61.0019 89.6576 65.1163 88.8535 69.9947L82.139 110H74.9823L81.5762 70.437C82.4071 65.3978 81.67 61.404 79.3648 58.4555C77.0864 55.4802 73.5617 53.9926 68.7905 53.9926C65.5472 53.9926 62.5318 54.6895 59.7441 56.0833C56.9833 57.4771 54.6513 59.4875 52.7482 62.1143C50.8451 64.7143 49.5853 67.8102 48.9688 71.4019ZM150.52 61.7926L143.645 63.5617C143.296 61.7122 142.653 60.0503 141.715 58.5761C140.803 57.0751 139.477 55.8957 137.734 55.038C136.019 54.1534 133.767 53.7112 130.98 53.7112C126.798 53.7112 123.193 54.7297 120.164 56.7668C117.135 58.7771 115.366 61.3504 114.857 64.4864C114.428 67.1133 114.978 69.2442 116.505 70.8792C118.06 72.5143 120.66 73.8009 124.305 74.7391L133.312 77.0308C138.297 78.3174 141.849 80.3277 143.966 83.0618C146.111 85.7958 146.848 89.2535 146.178 93.435C145.588 96.9195 144.1 100.002 141.715 102.682C139.356 105.363 136.327 107.467 132.628 108.995C128.956 110.523 124.855 111.287 120.325 111.287C114.24 111.287 109.456 109.92 105.971 107.186C102.514 104.452 100.664 100.511 100.423 95.3649L107.62 93.7566C107.834 97.402 109.081 100.163 111.359 102.039C113.664 103.915 116.907 104.854 121.089 104.854C125.86 104.854 129.867 103.768 133.111 101.597C136.354 99.4257 138.217 96.7453 138.699 93.5556C139.155 91.036 138.686 88.9453 137.292 87.2834C135.925 85.6216 133.593 84.3886 130.296 83.5844L120.687 81.1721C115.514 79.8587 111.855 77.8081 109.711 75.0205C107.593 72.2061 106.883 68.7349 107.58 64.6071C108.142 61.2029 109.563 58.2143 111.841 55.6411C114.12 53.0679 117.001 51.0575 120.486 49.6101C123.97 48.1359 127.777 47.3988 131.904 47.3988C137.587 47.3988 141.916 48.6854 144.891 51.2586C147.866 53.805 149.743 57.3163 150.52 61.7926ZM193.651 48.2431L192.646 54.4751H163.135L164.18 48.2431H193.651ZM175.8 33.4472H182.997L172.945 93.8773C172.516 96.4505 172.623 98.4742 173.267 99.9484C173.91 101.396 174.902 102.428 176.242 103.044C177.582 103.634 179.056 103.929 180.665 103.929C181.603 103.929 182.407 103.875 183.077 103.768C183.774 103.634 184.39 103.5 184.926 103.366L185.449 109.839C184.672 110.107 183.747 110.348 182.675 110.563C181.603 110.804 180.316 110.925 178.815 110.925C176.188 110.925 173.763 110.348 171.538 109.196C169.313 108.043 167.624 106.328 166.472 104.049C165.319 101.771 165.011 98.9433 165.547 95.5659L175.8 33.4472ZM216.7 111.407C212.974 111.407 209.69 110.684 206.849 109.236C204.008 107.762 201.89 105.644 200.496 102.883C199.129 100.096 198.754 96.7185 199.371 92.7515C199.907 89.6958 200.925 87.1226 202.426 85.0319C203.954 82.9411 205.884 81.2257 208.216 79.8855C210.548 78.5185 213.228 77.4463 216.257 76.669C219.286 75.8916 222.583 75.3019 226.148 74.8999C229.633 74.471 232.608 74.0958 235.074 73.7741C237.54 73.4525 239.456 72.9432 240.823 72.2463C242.19 71.5494 243.008 70.4236 243.276 68.8689L243.517 67.4215C244.214 63.2132 243.571 59.9029 241.587 57.4905C239.604 55.0514 236.28 53.8318 231.616 53.8318C227.167 53.8318 223.307 54.8235 220.037 56.807C216.793 58.7637 214.381 61.0555 212.8 63.6823L206.447 61.2297C208.377 57.8524 210.749 55.1586 213.563 53.1483C216.378 51.1111 219.393 49.6503 222.61 48.7658C225.826 47.8544 229.003 47.3988 232.139 47.3988C234.498 47.3988 236.897 47.707 239.336 48.3235C241.775 48.94 243.959 50.0122 245.889 51.54C247.846 53.041 249.28 55.1452 250.191 57.8524C251.13 60.5328 251.264 63.937 250.593 68.0648L243.598 110H236.441L238.089 100.23H237.647C236.521 102.053 234.967 103.822 232.983 105.537C231.026 107.253 228.681 108.66 225.947 109.759C223.213 110.858 220.13 111.407 216.7 111.407ZM218.509 104.854C222.315 104.854 225.759 104.009 228.842 102.321C231.951 100.632 234.498 98.3938 236.481 95.6061C238.491 92.7917 239.778 89.6958 240.341 86.3185L241.828 77.3927C241.239 77.902 240.274 78.3576 238.934 78.7597C237.62 79.1618 236.133 79.5236 234.471 79.8453C232.836 80.1401 231.187 80.3947 229.525 80.6092C227.89 80.8236 226.443 81.0112 225.183 81.1721C221.618 81.6009 218.509 82.271 215.855 83.1824C213.228 84.0937 211.124 85.3535 209.543 86.9618C207.961 88.5432 206.97 90.5803 206.568 93.0731C205.951 96.8257 206.769 99.734 209.02 101.798C211.298 103.835 214.461 104.854 218.509 104.854ZM276.185 71.4019L269.792 110H262.635L272.928 48.2431H279.884L278.275 57.9328H278.919C280.849 54.7699 283.516 52.2369 286.92 50.3338C290.351 48.4039 294.331 47.439 298.861 47.439C302.989 47.439 306.474 48.3101 309.315 50.0524C312.183 51.7678 314.22 54.3008 315.426 57.6514C316.659 61.0019 316.874 65.1163 316.069 69.9947L309.355 110H302.198L308.792 70.437C309.623 65.3978 308.886 61.404 306.581 58.4555C304.302 55.4802 300.778 53.9926 296.006 53.9926C292.763 53.9926 289.748 54.6895 286.96 56.0833C284.199 57.4771 281.867 59.4875 279.964 62.1143C278.061 64.7143 276.801 67.8102 276.185 71.4019ZM362.819 48.2431L361.814 54.4751H332.303L333.348 48.2431H362.819ZM344.968 33.4472H352.165L342.113 93.8773C341.684 96.4505 341.791 98.4742 342.435 99.9484C343.078 101.396 344.07 102.428 345.41 103.044C346.75 103.634 348.224 103.929 349.833 103.929C350.771 103.929 351.575 103.875 352.245 103.768C352.942 103.634 353.558 103.5 354.095 103.366L354.617 109.839C353.84 110.107 352.915 110.348 351.843 110.563C350.771 110.804 349.484 110.925 347.983 110.925C345.356 110.925 342.931 110.348 340.706 109.196C338.481 108.043 336.792 106.328 335.64 104.049C334.487 101.771 334.179 98.9433 334.715 95.5659L344.968 33.4472ZM365.563 110L379.234 27.6575H413.248C419.413 27.6575 424.546 28.8502 428.647 31.2358C432.748 33.6214 435.656 36.9585 437.372 41.2472C439.087 45.5359 439.476 50.5081 438.538 56.1637C437.627 61.873 435.576 66.8452 432.386 71.0803C429.223 75.3153 425.149 78.5989 420.164 80.9308C415.178 83.2628 409.509 84.4288 403.156 84.4288H382.209L384.822 68.7483H402.111C405.14 68.7483 407.753 68.2256 409.951 67.1803C412.176 66.1349 413.958 64.6741 415.299 62.7978C416.639 60.9215 417.523 58.7101 417.952 56.1637C418.354 53.6173 418.193 51.4194 417.47 49.5699C416.746 47.6936 415.446 46.2462 413.57 45.2276C411.72 44.2091 409.308 43.6998 406.333 43.6998H396.522L385.466 110H365.563ZM454.349 111.045C450.436 111.045 447.058 110.389 444.217 109.075C441.403 107.735 439.339 105.711 438.025 103.004C436.739 100.297 436.43 96.9195 437.101 92.8721C437.69 89.4412 438.776 86.5597 440.357 84.2277C441.965 81.869 443.936 79.9525 446.268 78.4782C448.626 77.004 451.253 75.8782 454.148 75.1009C457.043 74.3236 460.072 73.8009 463.235 73.5329C466.773 73.2112 469.641 72.8628 471.839 72.4875C474.064 72.1122 475.725 71.5896 476.824 70.9195C477.923 70.2225 478.593 69.2576 478.835 68.0246V67.8236C479.156 65.7596 478.714 64.1648 477.508 63.039C476.302 61.9132 474.492 61.3504 472.08 61.3504C469.507 61.3504 467.309 61.9132 465.486 63.039C463.664 64.1648 462.39 65.7194 461.667 67.703L443.654 67.0597C444.78 63.3071 446.71 59.9565 449.444 57.0081C452.178 54.0328 455.649 51.7008 459.857 50.0122C464.092 48.2967 468.984 47.439 474.533 47.439C478.446 47.439 481.984 47.908 485.147 48.8462C488.31 49.7575 490.977 51.0977 493.148 52.8668C495.346 54.6091 496.914 56.7534 497.852 59.2998C498.79 61.8462 498.991 64.7545 498.455 68.0246L491.419 110H472.924L474.372 101.396H473.889C472.442 103.487 470.74 105.256 468.783 106.703C466.853 108.151 464.682 109.236 462.27 109.96C459.857 110.684 457.217 111.045 454.349 111.045ZM462.632 98.1793C464.695 98.1793 466.652 97.7505 468.502 96.8927C470.351 96.035 471.906 94.8556 473.166 93.3546C474.452 91.8267 475.27 90.0577 475.618 88.0473L476.543 82.1772C475.98 82.4721 475.27 82.7401 474.412 82.9814C473.554 83.2226 472.643 83.4504 471.678 83.6649C470.713 83.8525 469.721 84.0401 468.703 84.2277C467.711 84.3886 466.759 84.536 465.848 84.67C463.918 84.9649 462.243 85.4205 460.822 86.037C459.402 86.6535 458.262 87.4577 457.405 88.4494C456.574 89.4144 456.065 90.5669 455.877 91.9072C455.555 93.9175 456.024 95.4721 457.284 96.5711C458.544 97.6433 460.326 98.1793 462.632 98.1793ZM509.472 133.159C507.113 133.159 504.915 132.971 502.878 132.596C500.868 132.247 499.152 131.778 497.732 131.189L504.486 116.915C506.282 117.559 507.931 117.921 509.432 118.001C510.96 118.108 512.327 117.854 513.533 117.237C514.766 116.647 515.838 115.589 516.749 114.061L517.875 112.171L506.577 48.2431H526.439L530.46 92.3494H531.103L550 48.2431H571.43L536.973 115.91C535.231 119.288 533.127 122.276 530.661 124.876C528.195 127.476 525.219 129.5 521.735 130.947C518.277 132.422 514.189 133.159 509.472 133.159Z" fill="url(#paint1_linear_0_85)"/>
<defs>
<linearGradient id="paint0_linear_0_85" x1="0.562927" y1="135.628" x2="21.1303" y2="227.068" gradientUnits="userSpaceOnUse">
<stop stop-color="#093E68"/>
<stop offset="1" stop-color="#326A8E"/>
</linearGradient>
<linearGradient id="paint1_linear_0_85" x1="0.562988" y1="0" x2="62.7491" y2="256.27" gradientUnits="userSpaceOnUse">
<stop stop-color="#093E68"/>
<stop offset="1" stop-color="#326A8E"/>
</linearGradient>
</defs>
</svg>
