<svg width="571" height="184" viewBox="0 0 571 184" fill="none" xmlns="http://www.w3.org/2000/svg">
<path d="M10.943 174.026C8.07789 174.026 5.92909 173.283 4.49656 171.797C3.09056 170.285 2.38755 167.924 2.38755 164.714C2.38755 164.184 2.40082 163.613 2.42735 163.003C2.4804 162.366 2.53346 161.743 2.58652 161.133H10.943V163.918H5.92909V164.714C5.92909 166.385 6.11479 167.699 6.48619 168.654C6.85759 169.582 7.40142 170.232 8.11768 170.603C8.86048 170.975 9.77571 171.161 10.8634 171.161C12.0571 171.161 13.0918 170.935 13.9672 170.484C14.8426 170.033 15.5191 169.211 15.9966 168.017C16.4741 166.823 16.7129 165.112 16.7129 162.884C16.7129 160.921 16.5007 159.316 16.0762 158.069C15.6517 156.822 14.9487 155.893 13.9672 155.283C13.0122 154.673 11.7123 154.368 10.0675 154.368C9.21861 154.368 8.39623 154.448 7.60038 154.607C6.80453 154.739 6.03521 154.952 5.29241 155.244C4.54962 155.509 3.82009 155.854 3.10382 156.278V152.975C3.63439 152.684 4.28433 152.432 5.05366 152.219C5.82298 151.981 6.67189 151.795 7.60038 151.662C8.52887 151.503 9.49716 151.423 10.5052 151.423C12.8397 151.423 14.7232 151.901 16.1558 152.856C17.6148 153.784 18.676 155.111 19.3392 156.835C20.0024 158.533 20.334 160.549 20.334 162.884C20.334 165.218 20.0289 167.221 19.4188 168.892C18.8086 170.564 17.8138 171.837 16.4343 172.712C15.0814 173.588 13.2509 174.026 10.943 174.026ZM2.00766 148.359V146.807L4.91252 145.534H18.9195V148.359H2.00766ZM33.5936 174.026C32.0285 174.026 30.6755 173.76 29.5348 173.23C28.4206 172.673 27.5584 171.837 26.9483 170.723C26.3646 169.609 26.0728 168.163 26.0728 166.385V151.821H29.6144V166.186C29.6144 167.778 30.0123 168.985 30.8081 169.808C31.6305 170.63 32.811 171.041 34.3497 171.041C36.2067 171.041 37.6392 170.444 38.6473 169.251C39.6819 168.057 40.1992 166.452 40.1992 164.436V151.821H43.7407V173.628H40.7961L40.6369 170.404H40.438C39.9604 171.466 39.1248 172.341 37.931 173.031C36.7638 173.694 35.318 174.026 33.5936 174.026ZM63.2503 173.628V159.103C63.2503 157.379 62.8524 156.159 62.0565 155.442C61.2872 154.7 59.9873 154.328 58.1568 154.328C56.8304 154.328 55.5571 154.514 54.3367 154.885C53.143 155.23 52.0022 155.721 50.9146 156.358V153.055C51.6839 152.657 52.7185 152.286 54.0184 151.941C55.3448 151.596 56.8304 151.423 58.4752 151.423C59.8812 151.423 61.075 151.583 62.0565 151.901C63.0646 152.219 63.8074 152.803 64.2849 153.652C65.2134 154.076 65.8501 154.739 66.1949 155.641C66.5663 156.543 66.752 157.631 66.752 158.904V173.628H63.2503ZM56.406 174.026C54.0715 174.026 52.2808 173.495 51.034 172.434C49.8137 171.346 49.2035 169.794 49.2035 167.778C49.2035 165.576 49.9994 163.879 51.5911 162.685C53.2093 161.491 55.8223 160.788 59.4302 160.576L63.9665 160.297V163.242L59.9077 163.52C57.2018 163.706 55.3316 164.131 54.297 164.794C53.2889 165.457 52.7848 166.425 52.7848 167.699C52.7848 168.892 53.1562 169.768 53.899 170.325C54.6684 170.882 55.7295 171.161 57.0824 171.161C57.5334 171.161 57.9446 171.134 58.316 171.081C58.6874 171.001 59.0455 170.909 59.3904 170.802L59.9475 173.469C59.4435 173.654 58.8864 173.787 58.2762 173.866C57.6926 173.973 57.0692 174.026 56.406 174.026ZM64.1655 154.885L62.1759 153.015C62.8656 152.909 63.5156 152.644 64.1257 152.219C64.7359 151.795 65.0409 151.185 65.0409 150.389H68.5029C68.5029 151.211 68.3039 151.941 67.906 152.577C67.5346 153.188 67.0173 153.692 66.3541 154.09C65.6909 154.461 64.9614 154.726 64.1655 154.885ZM78.1831 174.026C77.4668 174.026 76.7771 173.906 76.1139 173.667C75.4506 173.429 74.9068 173.004 74.4824 172.394C74.0579 171.784 73.8457 170.935 73.8457 169.847V151.821H77.3872V169.41C77.3872 170.02 77.5199 170.458 77.7851 170.723C78.0504 170.988 78.4749 171.121 79.0585 171.121C79.2973 171.121 79.5493 171.094 79.8146 171.041C80.0798 170.988 80.3319 170.922 80.5706 170.842L81.0481 173.429C80.5441 173.667 80.0533 173.827 79.5758 173.906C79.0983 173.986 78.634 174.026 78.1831 174.026ZM85.1039 173.628V151.821H87.571L88.2077 155.283H88.3668C88.8178 154.09 89.6402 153.148 90.834 152.458C92.0278 151.768 93.4736 151.423 95.1714 151.423C96.7631 151.423 98.116 151.702 99.2302 152.259C100.371 152.79 101.246 153.612 101.857 154.726C102.467 155.84 102.772 157.286 102.772 159.064V173.628H99.2302V159.263C99.2302 157.671 98.8323 156.464 98.0364 155.641C97.2406 154.819 96.0601 154.408 94.4949 154.408C93.2481 154.408 92.1869 154.7 91.3115 155.283C90.4361 155.867 89.7729 156.663 89.3219 157.671C88.8709 158.652 88.6454 159.767 88.6454 161.013V173.628H85.1039ZM85.4399 148.359V146.807L88.3448 145.534H102.352V148.359H85.4399ZM116.754 174.026C115.189 174.026 113.836 173.76 112.695 173.23C111.581 172.673 110.719 171.837 110.109 170.723C109.525 169.609 109.233 168.163 109.233 166.385V151.821H112.775V166.186C112.775 167.778 113.173 168.985 113.968 169.808C114.791 170.63 115.971 171.041 117.51 171.041C119.367 171.041 120.799 170.444 121.808 169.251C122.842 168.057 123.359 166.452 123.359 164.436V151.821H126.901V173.628H123.956L123.797 170.404H123.598C123.121 171.466 122.285 172.341 121.091 173.031C119.924 173.694 118.478 174.026 116.754 174.026ZM133.756 173.628V151.821H136.224L136.86 155.283H137.019C137.47 154.09 138.293 153.148 139.487 152.458C140.68 151.768 142.126 151.423 143.824 151.423C145.416 151.423 146.769 151.702 147.883 152.259C149.024 152.79 149.899 153.612 150.509 154.726C151.119 155.84 151.424 157.286 151.424 159.064V173.628H147.883V159.263C147.883 157.671 147.485 156.464 146.689 155.641C145.893 154.819 144.713 154.408 143.148 154.408C141.901 154.408 140.84 154.7 139.964 155.283C139.089 155.867 138.425 156.663 137.974 157.671C137.524 158.652 137.298 159.767 137.298 161.013V173.628H133.756ZM144.478 149.513C144.293 149.222 144.147 148.85 144.041 148.399C143.908 147.922 143.842 147.457 143.842 147.006C143.842 146.449 143.961 145.932 144.2 145.455C144.439 144.951 144.863 144.539 145.473 144.221C146.083 143.903 146.932 143.743 148.02 143.743H153.472V146.489H148.935C148.405 146.489 147.98 146.595 147.662 146.807C147.343 146.993 147.184 147.325 147.184 147.802C147.184 147.988 147.224 148.187 147.304 148.399C147.357 148.611 147.436 148.824 147.542 149.036L144.478 149.513ZM162.82 174.026C162.104 174.026 161.414 173.906 160.751 173.667C160.088 173.429 159.544 173.004 159.119 172.394C158.695 171.784 158.483 170.935 158.483 169.847V151.821H162.024V169.41C162.024 170.02 162.157 170.458 162.422 170.723C162.687 170.988 163.112 171.121 163.695 171.121C163.934 171.121 164.186 171.094 164.451 171.041C164.717 170.988 164.969 170.922 165.208 170.842L165.685 173.429C165.181 173.667 164.69 173.827 164.213 173.906C163.735 173.986 163.271 174.026 162.82 174.026ZM171.231 173.628L167.291 151.821H170.912L172.464 161.292C172.597 162.061 172.73 163.056 172.862 164.276C172.995 165.497 173.154 166.943 173.34 168.614H173.459C173.698 167.473 173.923 166.452 174.136 165.55C174.374 164.648 174.587 163.839 174.772 163.122C174.985 162.38 175.17 161.73 175.329 161.173L177.996 151.821H180.9L183.606 161.173C183.765 161.73 183.938 162.38 184.124 163.122C184.336 163.839 184.548 164.648 184.76 165.55C184.999 166.452 185.238 167.473 185.477 168.614H185.636C185.795 166.943 185.941 165.497 186.073 164.276C186.206 163.056 186.339 162.061 186.471 161.292L188.063 151.821H191.684L187.745 173.628H184.283L180.622 161.77C180.436 161.106 180.25 160.417 180.065 159.7C179.906 158.984 179.746 158.042 179.587 156.875H179.428C179.322 157.644 179.203 158.321 179.07 158.904C178.937 159.488 178.805 160.005 178.672 160.456C178.539 160.907 178.407 161.345 178.274 161.77L174.693 173.628H171.231ZM204.948 173.986C202.799 173.986 201.074 173.707 199.775 173.15C198.501 172.593 197.573 171.81 196.989 170.802C196.432 169.794 196.153 168.601 196.153 167.221C196.153 166.001 196.326 165.032 196.671 164.316C197.042 163.573 197.493 163.03 198.024 162.685C198.581 162.34 199.151 162.114 199.735 162.008V161.849C199.204 161.69 198.647 161.425 198.063 161.053C197.48 160.682 196.989 160.165 196.591 159.501C196.22 158.838 196.034 158.002 196.034 156.994C196.034 156.066 196.246 155.19 196.671 154.368C197.095 153.546 197.785 152.869 198.74 152.339C199.695 151.808 200.955 151.543 202.52 151.543C203.157 151.543 203.82 151.596 204.51 151.702C205.2 151.782 205.73 151.927 206.102 152.14L205.465 154.885C205.173 154.779 204.788 154.686 204.311 154.607C203.86 154.501 203.382 154.448 202.878 154.448C201.764 154.448 200.942 154.713 200.411 155.244C199.881 155.748 199.615 156.424 199.615 157.273C199.615 158.201 199.841 158.904 200.292 159.382C200.769 159.859 201.366 160.191 202.083 160.377C202.825 160.536 203.595 160.616 204.39 160.616H205.147V163.202H204.39C202.799 163.202 201.618 163.494 200.849 164.077C200.106 164.635 199.735 165.576 199.735 166.903C199.735 167.672 199.881 168.375 200.172 169.012C200.491 169.648 201.021 170.152 201.764 170.524C202.533 170.895 203.595 171.081 204.948 171.081C206.301 171.081 207.348 170.895 208.091 170.524C208.861 170.152 209.404 169.622 209.723 168.932C210.041 168.216 210.2 167.367 210.2 166.385V151.821H213.742V166.147C213.742 168.932 213.025 170.935 211.593 172.155C210.187 173.376 207.972 173.986 204.948 173.986ZM207.198 149.513C207.013 149.222 206.867 148.85 206.761 148.399C206.628 147.922 206.562 147.457 206.562 147.006C206.562 146.449 206.681 145.932 206.92 145.455C207.159 144.951 207.583 144.539 208.193 144.221C208.803 143.903 209.652 143.743 210.74 143.743H216.191V146.489H211.655C211.125 146.489 210.7 146.595 210.382 146.807C210.063 146.993 209.904 147.325 209.904 147.802C209.904 147.988 209.944 148.187 210.024 148.399C210.077 148.611 210.156 148.824 210.262 149.036L207.198 149.513Z" fill="white"/>
<path d="M28.1218 27.6575L14.4516 110H6.93302L20.6032 27.6575H28.1218ZM48.4058 71.4019L42.013 110H34.8563L45.1491 48.2431H52.1048L50.4966 57.9328H51.1399C53.0698 54.7699 55.7368 52.2369 59.1409 50.3338C62.5719 48.4039 66.5523 47.439 71.0822 47.439C75.2101 47.439 78.6946 48.3101 81.5358 50.0524C84.4039 51.7678 86.441 54.3008 87.6472 57.6514C88.8802 61.0019 89.0946 65.1163 88.2905 69.9947L81.5761 110H74.4193L81.0132 70.437C81.8441 65.3978 81.107 61.404 78.8018 58.4555C76.5235 55.4802 72.9987 53.9926 68.2276 53.9926C64.9842 53.9926 61.9688 54.6895 59.1811 56.0833C56.4203 57.4771 54.0883 59.4875 52.1852 62.1143C50.2821 64.7143 49.0223 67.8102 48.4058 71.4019ZM149.957 61.7926L143.082 63.5617C142.733 61.7122 142.09 60.0503 141.152 58.5761C140.24 57.0751 138.914 55.8957 137.171 55.038C135.456 54.1534 133.204 53.7112 130.417 53.7112C126.235 53.7112 122.63 54.7297 119.601 56.7668C116.572 58.7771 114.803 61.3504 114.294 64.4864C113.865 67.1133 114.415 69.2442 115.942 70.8792C117.497 72.5143 120.097 73.8009 123.742 74.7391L132.749 77.0308C137.734 78.3174 141.286 80.3277 143.403 83.0618C145.548 85.7958 146.285 89.2535 145.615 93.435C145.025 96.9195 143.537 100.002 141.152 102.682C138.793 105.363 135.764 107.467 132.065 108.995C128.393 110.523 124.292 111.287 119.762 111.287C113.677 111.287 108.893 109.92 105.408 107.186C101.951 104.452 100.101 100.511 99.8599 95.3649L107.057 93.7566C107.271 97.402 108.518 100.163 110.796 102.039C113.101 103.915 116.344 104.854 120.526 104.854C125.297 104.854 129.304 103.768 132.548 101.597C135.791 99.4257 137.654 96.7453 138.136 93.5556C138.592 91.036 138.123 88.9453 136.729 87.2834C135.362 85.6216 133.03 84.3886 129.733 83.5844L120.124 81.1721C114.951 79.8587 111.292 77.8081 109.148 75.0205C107.03 72.2061 106.32 68.7349 107.017 64.6071C107.579 61.2029 109 58.2143 111.278 55.6411C113.557 53.0679 116.438 51.0575 119.923 49.6101C123.407 48.1359 127.214 47.3988 131.341 47.3988C137.024 47.3988 141.353 48.6854 144.328 51.2586C147.303 53.805 149.18 57.3163 149.957 61.7926ZM193.088 48.2431L192.083 54.4751H162.572L163.617 48.2431H193.088ZM175.237 33.4472H182.434L172.382 93.8773C171.953 96.4505 172.06 98.4742 172.704 99.9484C173.347 101.396 174.339 102.428 175.679 103.044C177.019 103.634 178.493 103.929 180.102 103.929C181.04 103.929 181.844 103.875 182.514 103.768C183.211 103.634 183.827 103.5 184.363 103.366L184.886 109.839C184.109 110.107 183.184 110.348 182.112 110.563C181.04 110.804 179.753 110.925 178.252 110.925C175.625 110.925 173.2 110.348 170.975 109.196C168.75 108.043 167.061 106.328 165.909 104.049C164.756 101.771 164.448 98.9433 164.984 95.5659L175.237 33.4472ZM216.137 111.407C212.411 111.407 209.127 110.684 206.286 109.236C203.445 107.762 201.327 105.644 199.933 102.883C198.566 100.096 198.191 96.7185 198.808 92.7515C199.344 89.6958 200.362 87.1226 201.863 85.0319C203.391 82.9411 205.321 81.2257 207.653 79.8855C209.985 78.5185 212.665 77.4463 215.694 76.669C218.723 75.8916 222.02 75.3019 225.585 74.8999C229.07 74.471 232.045 74.0958 234.511 73.7741C236.977 73.4525 238.893 72.9432 240.26 72.2463C241.627 71.5494 242.445 70.4236 242.713 68.8689L242.954 67.4215C243.651 63.2132 243.008 59.9029 241.024 57.4905C239.041 55.0514 235.717 53.8318 231.053 53.8318C226.604 53.8318 222.744 54.8235 219.474 56.807C216.23 58.7637 213.818 61.0555 212.237 63.6823L205.884 61.2297C207.814 57.8524 210.186 55.1586 213 53.1483C215.815 51.1111 218.83 49.6503 222.047 48.7658C225.263 47.8544 228.44 47.3988 231.576 47.3988C233.935 47.3988 236.334 47.707 238.773 48.3235C241.212 48.94 243.396 50.0122 245.326 51.54C247.283 53.041 248.717 55.1452 249.628 57.8524C250.567 60.5328 250.701 63.937 250.03 68.0648L243.035 110H235.878L237.526 100.23H237.084C235.958 102.053 234.404 103.822 232.42 105.537C230.463 107.253 228.118 108.66 225.384 109.759C222.65 110.858 219.567 111.407 216.137 111.407ZM217.946 104.854C221.752 104.854 225.196 104.009 228.279 102.321C231.388 100.632 233.935 98.3938 235.918 95.6061C237.928 92.7917 239.215 89.6958 239.778 86.3185L241.265 77.3927C240.676 77.902 239.711 78.3576 238.371 78.7597C237.057 79.1618 235.57 79.5236 233.908 79.8453C232.273 80.1401 230.624 80.3947 228.962 80.6092C227.327 80.8236 225.88 81.0112 224.62 81.1721C221.055 81.6009 217.946 82.271 215.292 83.1824C212.665 84.0937 210.561 85.3535 208.98 86.9618C207.398 88.5432 206.407 90.5803 206.005 93.0731C205.388 96.8257 206.206 99.734 208.457 101.798C210.735 103.835 213.898 104.854 217.946 104.854ZM275.622 71.4019L269.229 110H262.072L272.365 48.2431H279.321L277.713 57.9328H278.356C280.286 54.7699 282.953 52.2369 286.357 50.3338C289.788 48.4039 293.768 47.439 298.298 47.439C302.426 47.439 305.911 48.3101 308.752 50.0524C311.62 51.7678 313.657 54.3008 314.863 57.6514C316.096 61.0019 316.311 65.1163 315.506 69.9947L308.792 110H301.635L308.229 70.437C309.06 65.3978 308.323 61.404 306.018 58.4555C303.739 55.4802 300.215 53.9926 295.443 53.9926C292.2 53.9926 289.185 54.6895 286.397 56.0833C283.636 57.4771 281.304 59.4875 279.401 62.1143C277.498 64.7143 276.238 67.8102 275.622 71.4019ZM362.256 48.2431L361.251 54.4751H331.74L332.785 48.2431H362.256ZM344.405 33.4472H351.602L341.55 93.8773C341.121 96.4505 341.228 98.4742 341.872 99.9484C342.515 101.396 343.507 102.428 344.847 103.044C346.187 103.634 347.661 103.929 349.27 103.929C350.208 103.929 351.012 103.875 351.682 103.768C352.379 103.634 352.996 103.5 353.532 103.366L354.054 109.839C353.277 110.107 352.352 110.348 351.28 110.563C350.208 110.804 348.921 110.925 347.42 110.925C344.793 110.925 342.368 110.348 340.143 109.196C337.918 108.043 336.229 106.328 335.077 104.049C333.924 101.771 333.616 98.9433 334.152 95.5659L344.405 33.4472ZM365 110L378.671 27.6575H412.685C418.85 27.6575 423.983 28.8502 428.084 31.2358C432.185 33.6214 435.093 36.9585 436.809 41.2472C438.524 45.5359 438.913 50.5081 437.975 56.1637C437.064 61.873 435.013 66.8452 431.823 71.0803C428.66 75.3153 424.586 78.5989 419.601 80.9308C414.615 83.2628 408.946 84.4288 402.593 84.4288H381.646L384.259 68.7483H401.548C404.577 68.7483 407.19 68.2256 409.388 67.1803C411.613 66.1349 413.395 64.6741 414.736 62.7978C416.076 60.9215 416.96 58.7101 417.389 56.1637C417.791 53.6173 417.63 51.4194 416.907 49.5699C416.183 47.6936 414.883 46.2462 413.007 45.2276C411.157 44.2091 408.745 43.6998 405.77 43.6998H395.959L384.903 110H365ZM453.786 111.045C449.873 111.045 446.495 110.389 443.654 109.075C440.84 107.735 438.776 105.711 437.462 103.004C436.176 100.297 435.867 96.9195 436.538 92.8721C437.127 89.4412 438.213 86.5597 439.794 84.2277C441.403 81.869 443.373 79.9525 445.705 78.4782C448.063 77.004 450.69 75.8782 453.585 75.1009C456.48 74.3236 459.509 73.8009 462.672 73.5329C466.21 73.2112 469.078 72.8628 471.276 72.4875C473.501 72.1122 475.162 71.5896 476.261 70.9195C477.36 70.2225 478.03 69.2576 478.272 68.0246V67.8236C478.593 65.7596 478.151 64.1648 476.945 63.039C475.739 61.9132 473.929 61.3504 471.517 61.3504C468.944 61.3504 466.746 61.9132 464.923 63.039C463.101 64.1648 461.827 65.7194 461.104 67.703L443.091 67.0597C444.217 63.3071 446.147 59.9565 448.881 57.0081C451.615 54.0328 455.086 51.7008 459.294 50.0122C463.529 48.2967 468.421 47.439 473.97 47.439C477.883 47.439 481.421 47.908 484.584 48.8462C487.747 49.7575 490.414 51.0977 492.585 52.8668C494.783 54.6091 496.351 56.7534 497.289 59.2998C498.227 61.8462 498.428 64.7545 497.892 68.0246L490.856 110H472.361L473.809 101.396H473.326C471.879 103.487 470.177 105.256 468.22 106.703C466.29 108.151 464.119 109.236 461.707 109.96C459.294 110.684 456.654 111.045 453.786 111.045ZM462.069 98.1793C464.132 98.1793 466.089 97.7505 467.939 96.8927C469.788 96.035 471.343 94.8556 472.603 93.3546C473.889 91.8267 474.707 90.0577 475.055 88.0473L475.98 82.1772C475.417 82.4721 474.707 82.7401 473.849 82.9814C472.991 83.2226 472.08 83.4504 471.115 83.6649C470.15 83.8525 469.158 84.0401 468.14 84.2277C467.148 84.3886 466.196 84.536 465.285 84.67C463.355 84.9649 461.68 85.4205 460.259 86.037C458.839 86.6535 457.699 87.4577 456.842 88.4494C456.011 89.4144 455.502 90.5669 455.314 91.9072C454.992 93.9175 455.461 95.4721 456.721 96.5711C457.981 97.6433 459.763 98.1793 462.069 98.1793ZM508.909 133.159C506.55 133.159 504.352 132.971 502.315 132.596C500.305 132.247 498.589 131.778 497.169 131.189L503.923 116.915C505.719 117.559 507.368 117.921 508.869 118.001C510.397 118.108 511.764 117.854 512.97 117.237C514.203 116.647 515.275 115.589 516.186 114.061L517.312 112.171L506.014 48.2431H525.876L529.897 92.3494H530.54L549.437 48.2431H570.867L536.41 115.91C534.668 119.288 532.564 122.276 530.098 124.876C527.632 127.476 524.656 129.5 521.172 130.947C517.714 132.422 513.626 133.159 508.909 133.159Z" fill="white"/>
</svg>
